<svg xmlns="http://www.w3.org/2000/svg" viewBox="0 0 410 404"><path fill="#41D1FF" d="M399.641 59.525 215.47 388.658c-3.831 6.66-13.354 6.702-17.228.076L9.574 59.556c-4.132-6.934 1.371-15.625 9.229-14.54l187.526 26.297a10 10 0 0 0 2.861-.004l181.781-26.29c7.842-1.134 13.378 7.533 9.266 14.47Z"/><path fill="#BD34FE" d="m292.965.006-73.54 13.772a5 5 0 0 0-4.043 4.014l-12.026 70.523a5 5 0 0 0 5.9 5.81l20.125-3.519c3.239-.566 6.137 2.03 5.634 5.297l-7.638 49.718c-.601 3.914 4.049 6.445 6.8 3.502l1.102-1.176 95.339-140.257c2.314-3.404-.476-7.923-4.591-7.16l-27.116 4.923c-3.28.596-6.184-2.163-5.61-5.442l8.009-46.184c.563-3.244-2.29-5.947-5.516-5.321Z"/><path fill="#FFD300" d="M212.473 106.419 141.889 213.35c-2.268 3.406.48 7.865 4.623 7.143l28.614-4.993c3.276-.572 6.193 2.202 5.596 5.481l-11.356 63.636c-.732 4.099 4.414 6.78 6.918 3.257l3.363-4.642 69.14-135.941c1.86-3.658-1.4-7.804-5.412-7.08l-27.013 4.969c-3.27.601-6.202-2.11-5.662-5.387l6.182-36.181c.553-3.238-2.366-5.918-5.61-5.35Z"/></svg>
